<?xml version="1.0" encoding="UTF-8" ?>
<!DOCTYPE svg PUBLIC "-//W3C//DTD SVG 1.1//EN" "http://www.w3.org/Graphics/SVG/1.1/DTD/svg11.dtd">
<svg width="1000pt" height="283pt" viewBox="0 0 1000 283" version="1.1" xmlns="http://www.w3.org/2000/svg">
<path fill="#fefefe" d=" M 0.00 0.00 L 1000.00 0.00 L 1000.00 283.00 L 0.00 283.00 L 0.00 0.00 Z" />
<path fill="#080909" d=" M 58.89 57.06 C 71.82 52.90 85.54 52.31 99.00 51.79 C 112.11 51.64 125.57 51.45 138.16 55.60 C 144.25 57.53 149.83 61.51 152.77 67.30 C 158.22 77.81 158.22 89.99 158.37 101.54 C 152.41 101.48 146.45 101.53 140.49 101.51 C 140.46 92.88 140.81 83.73 136.98 75.76 C 134.46 70.51 128.30 69.03 123.07 68.11 C 112.09 66.41 100.92 66.96 89.87 67.39 C 81.11 68.00 72.07 68.38 63.80 71.62 C 58.37 73.55 56.00 79.33 54.70 84.48 C 51.49 97.75 52.78 111.50 52.50 125.02 C 53.12 143.19 52.90 161.56 56.31 179.50 C 57.05 184.86 60.57 189.60 65.65 191.58 C 76.74 196.39 89.16 196.17 101.02 196.24 C 111.34 195.83 121.91 195.91 131.86 192.79 C 136.15 191.55 139.18 187.78 140.48 183.64 C 143.19 175.23 142.89 166.23 142.43 157.52 C 148.38 157.50 154.34 157.40 160.30 157.57 C 160.27 169.85 160.55 182.56 156.08 194.21 C 154.21 199.24 150.59 203.81 145.46 205.76 C 136.45 209.31 126.67 210.09 117.11 210.85 C 101.81 211.64 86.36 212.21 71.17 209.88 C 61.91 208.28 51.95 205.72 45.40 198.50 C 39.61 191.27 37.98 181.77 36.43 172.89 C 33.14 150.09 33.93 126.97 34.28 104.02 C 34.94 94.78 34.42 85.19 37.52 76.33 C 41.42 67.27 49.53 60.09 58.89 57.06 Z" />
<path fill="#080909" d=" M 179.12 53.40 C 184.51 53.62 189.91 53.35 195.30 53.58 C 195.18 105.72 195.29 157.86 195.25 210.00 C 189.83 210.00 184.42 210.00 179.00 210.00 C 179.08 157.80 178.84 105.59 179.12 53.40 Z" />
<path fill="#ec9253" d=" M 633.70 53.64 C 674.29 53.30 714.90 53.55 755.50 53.51 C 755.58 62.34 755.40 71.16 755.60 79.98 C 740.10 80.59 724.56 80.12 709.05 80.22 C 708.93 123.48 709.03 166.74 709.00 210.00 C 699.00 210.00 689.00 210.00 679.00 210.00 C 678.97 166.74 679.06 123.48 678.95 80.22 C 663.89 80.28 648.83 80.26 633.76 80.23 C 633.70 71.37 633.81 62.50 633.70 53.64 Z" />
<path fill="#080909" d=" M 569.39 113.15 C 574.45 105.38 582.65 99.82 591.89 98.47 C 602.87 96.80 615.98 97.27 624.14 105.87 C 631.78 114.19 631.60 126.24 631.16 136.82 C 625.83 136.66 620.48 136.93 615.15 136.64 C 615.96 129.96 616.90 122.18 612.35 116.56 C 607.80 111.40 600.22 110.80 593.79 111.44 C 586.69 112.02 579.65 115.70 576.04 122.01 C 570.94 130.71 570.97 141.15 571.00 150.93 C 571.00 170.62 571.00 190.31 571.00 210.00 C 565.58 210.00 560.16 210.00 554.75 210.00 C 554.75 173.41 554.74 136.82 554.76 100.23 C 560.19 100.23 565.63 100.24 571.07 100.22 C 570.64 104.55 570.09 108.86 569.39 113.15 Z" />
<path fill="#080909" d=" M 234.62 105.64 C 243.33 100.14 253.97 99.10 264.03 98.75 C 275.98 98.73 288.40 98.92 299.57 103.65 C 304.99 105.86 309.29 110.35 311.34 115.82 C 316.64 129.29 316.01 144.05 316.00 158.25 C 289.74 158.26 263.48 158.24 237.22 158.26 C 237.61 167.97 237.44 177.99 240.84 187.23 C 242.17 191.17 245.59 194.02 249.45 195.34 C 257.32 198.12 265.83 198.12 274.08 197.93 C 280.61 197.48 287.52 197.57 293.56 194.70 C 299.66 191.00 299.49 182.99 299.56 176.72 C 305.05 176.77 310.55 176.75 316.05 176.74 C 316.72 184.90 315.88 193.96 310.52 200.54 C 306.31 205.84 299.59 208.12 293.20 209.50 C 283.62 211.39 273.79 211.72 264.05 211.42 C 253.97 210.90 243.34 209.95 234.51 204.60 C 229.30 201.56 226.24 196.06 224.44 190.48 C 221.30 180.66 220.68 170.28 220.26 160.05 C 220.08 147.67 220.31 135.12 223.42 123.07 C 225.26 116.34 228.47 109.43 234.62 105.64 Z" />
<path fill="#080909" d=" M 456.57 101.31 C 467.43 98.35 478.83 98.43 489.98 99.07 C 498.69 99.81 507.80 100.97 515.38 105.65 C 521.15 109.20 523.86 115.84 525.48 122.12 C 528.39 133.92 528.25 146.18 528.25 158.25 C 502.02 158.23 475.79 158.30 449.57 158.22 C 449.38 167.18 449.68 176.32 452.13 185.00 C 453.25 189.29 456.05 193.22 460.30 194.85 C 468.73 198.27 478.07 198.11 487.02 197.90 C 493.68 197.35 500.95 197.61 506.82 193.94 C 511.81 189.77 511.50 182.62 511.56 176.71 C 517.12 176.79 522.68 176.73 528.25 176.75 C 528.52 184.50 528.14 192.90 523.47 199.45 C 519.73 204.92 513.28 207.62 507.05 209.08 C 497.23 211.34 487.07 211.66 477.04 211.47 C 466.34 210.97 455.01 210.00 445.77 204.04 C 439.16 199.64 436.44 191.61 434.85 184.20 C 432.02 169.73 431.83 154.84 432.79 140.17 C 433.62 131.05 434.83 121.60 439.35 113.47 C 442.82 106.98 449.69 103.20 456.57 101.31 Z" />
<path fill="#ec9253" d=" M 761.09 101.05 C 771.93 98.79 783.09 98.82 794.11 99.12 C 803.90 99.72 814.10 100.52 822.95 105.14 C 829.70 108.61 833.42 115.89 834.91 123.06 C 836.75 130.58 836.17 138.36 836.25 146.02 C 836.25 167.35 836.27 188.67 836.24 210.00 C 827.47 210.00 818.70 210.00 809.94 210.00 C 810.08 204.90 810.93 199.85 810.95 194.74 C 806.57 204.02 796.75 209.24 786.89 210.45 C 774.81 212.00 761.79 211.79 750.73 206.15 C 742.39 202.00 737.32 193.14 736.29 184.08 C 735.40 175.12 735.77 165.41 740.74 157.58 C 744.89 150.76 752.32 146.61 759.92 144.79 C 769.79 142.44 780.13 142.51 790.13 143.95 C 797.89 145.03 805.83 148.39 809.97 155.41 C 809.96 147.26 810.25 139.08 809.43 130.95 C 808.82 126.72 807.53 121.81 803.39 119.72 C 798.01 117.11 791.83 116.98 785.97 117.00 C 780.69 117.18 774.93 118.13 770.99 121.95 C 768.24 124.63 767.50 128.55 767.12 132.21 C 758.13 132.26 749.14 132.32 740.15 132.18 C 740.41 124.20 741.01 115.55 746.02 108.96 C 749.58 104.21 755.53 102.29 761.09 101.05 Z" />
<path fill="#ec9253" d=" M 906.66 101.45 C 918.00 97.96 930.38 98.25 941.82 101.15 C 949.63 103.23 956.84 108.41 960.07 115.98 C 965.08 127.25 965.69 139.83 966.01 151.98 C 965.94 165.38 965.60 179.17 960.91 191.88 C 958.56 198.56 953.54 204.24 947.04 207.10 C 937.97 211.12 927.77 211.66 918.00 211.02 C 909.92 210.41 901.59 207.97 895.62 202.25 C 893.28 200.18 891.98 197.25 889.86 195.00 C 889.68 215.65 889.78 236.30 889.81 256.95 C 880.61 257.04 871.40 257.01 862.21 256.97 C 862.27 204.73 862.19 152.48 862.25 100.24 C 871.17 100.21 880.10 100.25 889.03 100.22 C 888.84 105.66 888.28 111.09 888.07 116.54 C 892.39 109.65 898.71 103.78 906.66 101.45 Z" />
<path fill="#080909" d=" M 326.11 100.28 C 331.72 100.18 337.34 100.26 342.96 100.23 C 351.48 126.54 360.09 152.82 368.57 179.14 C 370.55 185.17 372.05 191.36 374.44 197.25 C 383.89 164.76 394.44 132.61 404.27 100.25 C 410.34 100.27 416.41 100.13 422.49 100.33 C 410.25 136.88 397.98 173.42 385.81 210.00 C 378.00 209.92 370.19 210.16 362.38 209.88 C 350.41 173.31 338.24 136.80 326.11 100.28 Z" />
<path fill="#fefefe" d=" M 253.14 113.66 C 262.29 111.79 271.76 111.89 281.00 113.01 C 286.38 113.79 292.60 115.14 295.60 120.18 C 299.87 127.89 298.99 137.00 299.53 145.48 C 278.85 145.49 258.16 145.49 237.47 145.48 C 237.83 137.31 237.77 128.71 241.43 121.20 C 243.65 116.75 248.53 114.65 253.14 113.66 Z" />
<path fill="#fefefe" d=" M 465.07 113.68 C 474.61 111.74 484.51 111.86 494.13 113.15 C 499.40 114.01 505.59 115.62 508.08 120.89 C 511.78 128.50 511.39 137.24 511.49 145.48 C 490.91 145.49 470.34 145.49 449.77 145.49 C 449.73 137.37 449.89 128.85 453.43 121.38 C 455.51 116.83 460.48 114.72 465.07 113.68 Z" />
<path fill="#fefefe" d=" M 905.44 120.69 C 913.61 119.50 922.41 119.45 930.09 122.84 C 935.56 125.32 937.29 131.59 938.04 137.04 C 939.63 148.33 939.61 159.85 938.35 171.17 C 937.52 177.09 936.27 184.24 930.40 187.27 C 923.80 190.50 916.14 190.54 908.97 189.92 C 903.26 189.34 896.83 187.42 893.91 182.04 C 891.02 176.50 890.49 170.11 889.99 163.99 C 889.57 155.28 889.57 146.50 890.80 137.85 C 891.41 133.92 892.25 129.86 894.52 126.52 C 897.03 123.01 901.34 121.44 905.44 120.69 Z" />
<path fill="#fefefe" d=" M 776.47 161.68 C 785.35 160.42 795.07 160.48 803.19 164.77 C 812.22 169.52 812.50 184.46 803.62 189.51 C 795.86 193.95 786.47 193.45 777.86 192.87 C 773.58 192.33 768.58 191.92 765.62 188.40 C 762.35 183.64 762.31 177.40 763.17 171.90 C 764.55 165.81 770.74 162.55 776.47 161.68 Z" />
</svg>
