<?xml version="1.0" encoding="UTF-8"?>
<svg xmlns="http://www.w3.org/2000/svg" xml:space="preserve" style="shape-rendering:geometricPrecision; text-rendering:geometricPrecision; image-rendering:optimizeQuality; fill-rule:evenodd; clip-rule:evenodd" viewBox="0 0 3.3989 1.0977" xmlns:xlink="http://www.w3.org/1999/xlink">
 <defs>
  <style type="text/css">
   
    .fil0 {fill:#1E75BA}
    .fil1 {fill:#4B4B4D}
   
  </style>
 </defs>
 <g id="Layer_x0020_1">
  <metadata id="CorelCorpID_0Corel-Layer"></metadata>
  <path class="fil0" d="M0.00535259 0.421951l1.20645 -0.42154 0 -2.98749e-005c0.00349537,-0.00123483 0.00742641,0.000642311 0.00862141,0.00418 0.000258916,0.000746874 0.000383395,0.00152362 0.000383395,0.00223813l0 1.08413c0,0.00372441 -0.00304973,0.00677165 -0.00677414,0.00677165l-0.000901227 -6.22395e-005 -1.20669 -0.058764c-0.00359744,-0.000199166 -0.00642062,-0.00317421 -0.00642062,-0.00677414l-2.98749e-005 0 0 -0.603504c0,-0.00323396 0.0022705,-0.00596254 0.00535259,-0.00660485l0 -3.23645e-005 0 -9.95831e-006zm3.39353 0.641848l0 -0.531545 -0.0503965 0 -0.110005 0.061744 0.0142006 0.0439859 0.0887112 -0.0503642 0 0.476189 0.0574993 0 -9.95831e-006 -9.95831e-006zm-0.29018 -0.251226c-0.0149051,0.0999516 -0.0707588,0.191909 -0.174569,0.206523l-0.0546462 0.0035352 0 0.0489775c0.133887,0.00596254 0.235561,-0.0754865 0.272743,-0.204158 0.0345827,-0.119535 0.0222992,-0.3445 -0.146397,-0.344406 -0.208701,9.21144e-005 -0.231001,0.348357 -0.0212934,0.348419 0.0497841,0 0.0920198,-0.0205166 0.122067,-0.058891l0.00210618 0 -9.95831e-006 0zm-0.107868 -0.244121c0.0865427,0.000455593 0.108157,0.100213 0.107866,0.171487 -0.000425718,0.0956471 -0.211034,0.144779 -0.21148,-0.0334799 -0.000166802,-0.0635291 0.0318616,-0.137519 0.103624,-0.138007l-9.95831e-006 0zm-2.86369 -0.0304002c-0.0128811,-0.00369204 -0.0263846,0.00369204 -0.0300791,0.0165955 -0.00372192,0.0128711 0.00369453,0.0263547 0.0165657,0.0300766l0.440757 0.127573 0.00985375 -0.00816084 0.438853 -0.362236c0.0103392,-0.00849444 0.011833,-0.0238228 0.00330865,-0.0341645 -0.00849693,-0.0103716 -0.0238253,-0.0118653 -0.034167,-0.00333852l-0.428997 0.354093 -0.416096 -0.120438z"></path>
  <path class="fil1" d="M2.77817 0.784902l-0.167504 0 0 0.0475435 0.109288 0 0 0.173178c-0.0430124,0.0241141 -0.130778,0.0183158 -0.175635,0.000580072 -0.143743,-0.0568147 -0.155153,-0.28373 -0.0620976,-0.379439 0.0639847,-0.0657996 0.185075,-0.0760367 0.265414,-0.0370499l0.0156221 -0.0489426c-0.0690012,-0.0323819 -0.171883,-0.0290733 -0.239744,-0.00227299 -0.204875,0.0809312 -0.205716,0.38165 -0.061744,0.48566 0.0844664,0.0610594 0.221926,0.0553956 0.316401,0.0176312l0 -0.256897 0 9.95831e-006zm-0.482473 -0.244131c-0.0809013,-0.051828 -0.27641,-0.0325363 -0.276047,0.117065 0.000291281,0.124494 0.135901,0.139884 0.193985,0.182999 0.0843619,0.0626577 0.0454074,0.209252 -0.115937,0.176705 -0.0258667,-0.00521816 -0.0519202,-0.0149773 -0.073089,-0.0289787l-0.0163366 0.048975c0.0870929,0.0613606 0.308011,0.0510513 0.308011,-0.117812 0,-0.180728 -0.237025,-0.134865 -0.237025,-0.269666 0,-0.0978803 0.136648,-0.100835 0.198713,-0.0603847l0.0177258 -0.0489152 0 1.24479e-005zm-0.380998 -0.0177582l-0.073806 0c-0.0440805,0.122709 -0.122418,0.324927 -0.154695,0.455613l-0.00213606 0c-0.0374333,-0.147311 -0.0997375,-0.311123 -0.149738,-0.45558l-0.0723745 0 -0.03763 0.540784 0.0560703 0 0.0255356 -0.476219 0.00213606 0c0.0357528,0.149218 0.1021,0.327457 0.151884,0.474051l0.0432714 0c0.0553956,-0.155576 0.116652,-0.316856 0.162547,-0.474051l0.00210618 0c-0.000809113,0.12303 0.016242,0.359059 0.0227249,0.476189l0.058174 0 -0.0340599 -0.540786 -9.95831e-006 0z"></path>
 </g>
</svg>