<?xml version="1.0" encoding="UTF-8" standalone="yes"?>
<svg version="1.1" id="Layer_1" xmlns="http://www.w3.org/2000/svg" xmlns:xlink="http://www.w3.org/1999/xlink" x="0px" y="0px" viewBox="0 0 784.376 188.74" enable-background="new 0 0 784.376 188.74" xml:space="preserve" preserveAspectRatio="xMidYMid meet">
  <g id="B1meWH_1_">
    <g>
      <path fill-rule="evenodd" clip-rule="evenodd" fill="#333333" d="M472.208,97.514c0-2.901,0-5.293,0-7.963c6.717,0,12.93,0,19.535,0c0,1.881,0,3.515,0,5.148c0,19.498,0.051,38.996-0.044,58.494c-0.019,3.804-0.376,7.641-0.974,11.4c-1.748,10.989-8.615,17.984-18.726,21.35c-11.315,3.766-22.937,3.901-34.204-0.643c-8.646-3.486-14.249-9.602-15.254-19.648c3.201-0.786,6.477-0.275,9.695-0.369c3.152-0.092,6.311-0.02,9.539-0.02c0.431,0.67,0.832,1.182,1.115,1.752c4.504,9.059,18.604,11.146,25.287,3.574c1.591-1.803,2.631-4.209,3.502-6.5c1.069-2.812,0.877-9.878,0.074-13.641c-2.312,1.811-4.46,3.979-7.019,5.412c-12.496,7.004-35.53,4.903-42.18-16.531c-3.346-10.785-3.561-21.577,0.468-32.278c6.475-17.196,23.711-23.295,38.556-17.829C465.246,90.572,466.791,91.789,472.208,97.514z M472.875,123.894c-0.167-0.041-0.334-0.082-0.502-0.123c-0.113-1.825-0.092-3.672-0.371-5.471c-0.639-4.143-1.789-8.096-4.773-11.275c-6.54-6.967-21.504-7.274-26.02,7.238c-1.93,6.199-1.558,12.512,0.277,18.663c2.051,6.878,7.24,11.035,13.609,11.33c6.789,0.313,12.643-3.195,15.273-9.823C471.688,131.112,472.07,127.419,472.875,123.894z"/>
      <path fill-rule="evenodd" clip-rule="evenodd" fill="#333333" d="M623.07,97.509c0-2.609,0-5.217,0-8.029c6.257,0,12.204,0,18.442,0c0.129,0.876,0.385,1.811,0.386,2.745c0.022,21.323,0.083,42.647-0.047,63.969c-0.021,3.619-0.591,7.302-1.417,10.836c-1.676,7.163-6.079,12.3-12.299,16.236c-10.605,6.711-32.964,6.965-43.672,0.316c-6.639-4.122-10.937-9.523-11.573-17.728c3.317-1.134,6.63-0.44,9.868-0.565c3.15-0.123,6.309-0.027,9.611-0.027c1.372,3.802,3.229,6.97,7.241,8.404c4.548,1.626,9.083,2.049,13.657,0.471c4.828-1.666,7.396-5.441,8.744-10.153c1.353-4.724,0.866-9.549-0.11-15.108c-0.492,0.869-0.858,1.847-1.497,2.59c-4.523,5.255-10.551,7.305-17.223,7.775c-6.801,0.48-13.213-0.764-19.074-4.486c-4.371-2.776-7.717-6.576-9.633-11.202c-5.594-13.513-6.06-27.175,0.693-40.479c7.061-13.91,21.828-18.272,35.205-14.444c4.23,1.211,7.838,3.627,10.461,7.302c0.471,0.659,0.98,1.291,1.473,1.936C622.561,97.747,622.815,97.628,623.07,97.509z M623.09,124.841c-0.48-3.562-0.528-6.794-1.404-9.783c-1.588-5.426-4.367-10.052-10.338-11.822c-10.23-3.031-18.299,3.206-20.326,12.818c-1.051,4.982-0.749,9.904,0.154,14.807c1.35,7.32,7.08,12.855,13.57,13.373c7.67,0.611,14.077-3.754,16.593-11.547C622.198,130.026,622.575,127.212,623.09,124.841z"/>
      <path fill-rule="evenodd" clip-rule="evenodd" fill="#333333" d="M784.376,100.812c-6.185,2.98-11.972,5.77-18.026,8.688c-6.317-4.828-12.739-9.555-18.943-14.553c-3.114-2.509-6.298-3.58-10.381-3.847c-14.147-0.925-27.552-4.388-38.797-13.747c-7.876-6.555-13.138-14.953-17.084-24.242c-3.857-9.081-6.025-18.618-7.166-28.399c-0.416-3.563-0.51-3.695-4.125-4.482c-6.464-1.406-12.936-2.781-19.631-4.217c0.648-2.667,2.623-3.314,4.472-3.612c5.241-0.843,10.508-1.653,15.796-2.035c3.176-0.23,5.516-0.91,7.556-3.709c7.168-9.834,21.152-7.999,26.93,0.466c10.223,14.979,20.5,29.921,30.626,44.965c5.48,8.142,10.763,16.419,15.983,24.73c1.369,2.181,3.001,3.892,5.119,5.293c8.047,5.324,16.057,10.706,24.07,16.08C781.864,98.921,782.897,99.731,784.376,100.812z M716.49,32.136c-4.881,2.565-8.538,5.925-11.61,9.863c-5.036,6.456-5.135,13.038-0.448,19.757c5.404,7.748,13.139,9.794,21.93,8.219c3.765-0.675,7.773-1.405,10.962-4.432c-5.343-8.592-10.59-17.035-15.844-25.474C719.906,37.542,718.31,35.028,716.49,32.136z M694.125,13.196c0.063-1.881-1.114-3.141-2.983-3.19c-1.872-0.05-3.151,1.152-3.188,2.996c-0.036,1.833,1.212,3.18,2.993,3.231C692.747,16.285,694.063,15.028,694.125,13.196z"/>
      <path fill-rule="evenodd" clip-rule="evenodd" fill="#333333" d="M517.372,111.791c-6.479,0-12.601,0-19.068,0c-0.752-5.214,1.182-9.476,4.105-13.354c2.871-3.809,6.669-6.575,11.177-8.085c12.188-4.084,24.463-4.208,36.704-0.197c6.865,2.249,13.129,7.748,12.916,18.031c-0.189,9.16-0.039,18.327-0.033,27.491c0.005,8.429-0.417,16.887,2.039,25.446c-6.773,0-13.18,0-19.672,0c-0.586-1.871-1.123-3.588-1.781-5.688c-1.244,0.926-2.293,1.889-3.499,2.575c-10.427,5.931-21.401,7.09-32.64,2.923c-6.968-2.584-10.707-8.016-11.734-15.451c-0.441-3.186-0.348-6.316,0.295-9.351c1.117-5.265,3.975-9.429,8.902-12.005c5.55-2.901,11.571-3.982,17.674-4.824c4.273-0.588,8.539-1.237,12.807-1.869c0.656-0.098,1.328-0.178,1.955-0.383c4.057-1.326,5.551-3.094,5.647-6.613c0.121-4.414-1.513-7.427-5.383-8.562c-4.339-1.272-8.838-1.417-13.235,0.042c-2.852,0.946-4.881,2.779-5.805,5.717C518.35,108.884,517.922,110.124,517.372,111.791z M543.145,127.636c-5.338,0.951-10.059,1.771-14.771,2.641c-3.588,0.662-7.187,1.232-10.045,3.9c-2.978,2.779-3.037,6.248-2.209,9.705c0.767,3.199,3.351,4.844,6.509,5.421c2.928,0.534,5.811,0.773,8.858,0.256c5.523-0.938,8.983-3.91,10.744-9.108C543.654,136.245,543.034,131.962,543.145,127.636z"/>
      <path fill-rule="evenodd" clip-rule="evenodd" fill="#333333" d="M115.356,63.368c3.381,0,6.321,0,9.726,0c-9.09,33.067-18.087,65.797-27.145,98.746c-3.414,0-6.684,0-10.386,0c-8.21-29.036-16.459-58.208-25.011-88.453c-8.488,30.184-16.683,59.326-24.901,88.553c-3.437,0-6.577,0-9.986,0c-1.126-1.025-1.327-2.684-1.764-4.263c-5.927-21.433-11.875-42.858-17.818-64.286c-2.573-9.277-5.153-18.552-7.714-27.832C0.183,65.202,0.137,64.535,0,63.692c3.125-1.138,6.262-0.3,9.864-0.576c4.178,14.13,7.462,28.48,11.215,42.699c3.767,14.268,7.429,28.562,11.413,43.907c8.161-29.372,16.038-57.72,23.979-86.304c4.02,0,7.946,0,12.258,0c7.869,28.149,15.76,56.381,23.933,85.618c2.816-7.696,4.155-14.831,6.121-21.769c1.989-7.023,3.609-14.15,5.438-21.22s3.729-14.119,5.574-21.184C111.636,77.811,113.448,70.749,115.356,63.368z"/>
      <path fill-rule="evenodd" clip-rule="evenodd" fill="#333333" d="M719.764,130.259c-17.261,0-34.18,0-51.072,0c-0.457,8.266,3.062,14.772,9.212,16.771c8.084,2.627,17.24,1.796,23.306-7.641c5.449,0,11.029,0,17.138,0c-2.423,8.303-6.51,15.049-13.832,18.979c-13.279,7.127-26.848,6.855-39.995-0.444c-8.518-4.729-13.047-12.712-15.183-21.907c-1.987-8.553-1.51-17.062,1.475-25.506c4.296-12.158,16.532-22.646,32.484-23.134c10.314-0.316,19.34,2.561,26.528,10.255c4.788,5.125,7.502,11.331,9.041,18.049C719.903,120.211,720.416,124.841,719.764,130.259z M699.729,117.188c-2.541-12.325-8.456-14.948-16.17-14.694c-9.348,0.309-15.188,7.133-14.853,14.694C678.916,117.188,689.133,117.188,699.729,117.188z"/>
      <path fill-rule="evenodd" clip-rule="evenodd" fill="#333333" d="M412.775,161.149c-6.341,0-12.614,0-19.282,0c-0.104-1.212-0.305-2.477-0.307-3.741c-0.024-12.327,0.07-24.655-0.071-36.981c-0.038-3.289-0.457-6.646-1.25-9.836c-1.133-4.557-4.56-6.937-9.1-7.25c-10.743-0.74-15.12,3.816-16.646,13.559c-0.307,1.959-0.193,3.99-0.196,5.987c-0.016,10.995-0.008,21.989-0.008,32.983c0,1.636,0,3.271,0,5.283c-6.734,0.488-13.119,0.096-19.751,0.271c0-24.215,0-47.939,0-71.914c6.211,0,12.273,0,18.819,0c0,2.948,0,5.673,0,9.464c4.632-6.745,10.233-9.973,17.086-11.161c6.208-1.076,12.328-0.604,18.113,1.781c5.128,2.115,8.909,5.969,10.634,11.302c1.111,3.441,2.055,7.107,2.113,10.688c0.264,15.987,0.184,31.979,0.21,47.971C413.141,160.015,412.936,160.474,412.775,161.149z"/>
      <path fill-rule="evenodd" clip-rule="evenodd" fill="#333333" d="M197.702,151.688c0,3.427,0,6.854,0,10.477c-3.054,0-5.631,0-8.433,0c0-32.965,0-65.705,0-98.738c2.822,0,5.542,0,8.718,0c0,13.164,0,26.245,0,40.37c6.336-12.054,15.992-16.105,27.866-15.342c11.783,0.758,20.553,6.673,25.292,17.49c5.882,13.426,5.908,27.251,0.068,40.68c-5.05,11.612-14.339,17.413-27.132,17.673C213.304,164.518,204.603,160.849,197.702,151.688z M246.213,124.839c0.137-6.531-1.531-14.352-6.847-21.084c-2.992-3.789-6.819-6.516-11.557-7.275c-12.759-2.049-22.765,3.383-27.04,15.091c-3.233,8.857-3.34,17.757-1.013,26.915c2.425,9.541,11.216,18.188,21.626,18.275c7.935,0.067,14.28-2.305,18.918-8.844C244.825,141.541,246.186,134.3,246.213,124.839z"/>
      <path fill-rule="evenodd" clip-rule="evenodd" fill="#333333" d="M182.967,129.083c-18.312,0-36.237,0-54.04,0c-1.663,2.619-0.147,4.848,0.132,7.033c0.669,5.234,3.033,9.817,6.472,13.78c8.078,9.308,23.946,8.571,30.735,2.056c2.444-2.345,4.07-5.58,5.891-8.52c0.861-1.39,1.303-3.039,2.023-4.789c2.747,0,5.498,0,8.277,0c-2.497,16.761-14.385,25.531-28.148,25.649c-6.033,0.052-11.918-0.233-17.489-2.95c-6.43-3.137-11.073-7.978-13.703-14.534c-5.221-13.014-5.488-26.13-0.293-39.288c5.528-14.005,19.076-21.154,34.184-18.765c11.23,1.776,18.515,8.472,22.719,18.696C182.474,114.134,183.596,121.157,182.967,129.083z M173.98,121.018c0.212-5.347-1.541-9.917-4.023-14.235c-7.836-13.627-26.726-14.444-35.849-1.615c-3.334,4.688-4.905,9.98-5.838,15.851C143.564,121.018,158.606,121.018,173.98,121.018z"/>
      <path fill-rule="evenodd" clip-rule="evenodd" fill="#333333" d="M301.876,129.073c-2.217-1.074-1.632-2.914-1.692-4.505c-0.06-1.622-0.013-3.247-0.013-5.163c-12.044,0-23.654,0-35.373,0c-1.186-3.136-0.473-6.129-0.601-9.044c-0.123-2.811-0.026-5.63-0.026-8.702c4.062-1.003,8.024-0.396,11.933-0.502c3.827-0.104,7.66-0.022,11.49-0.022c3.972,0,7.943,0,12.078,0c0.89-2.491,0.304-4.827,0.508-7.083c0.255-2.82,1.64-3.556,3.931-1.892c4.441,3.225,8.782,6.588,13.167,9.891c2.658,2.002,5.408,3.891,7.955,6.024c2.343,1.963,2.375,3.56-0.033,5.282c-7.167,5.125-14.445,10.094-21.7,15.095C302.989,128.803,302.313,128.912,301.876,129.073z"/>
      <path fill-rule="evenodd" clip-rule="evenodd" fill="#333333" d="M286.37,73.185c-1.461,2.548,0.629,5.803-2.683,7.776c-6.679-4.52-13.654-8.812-20.311-14.635c6.686-6.297,13.771-11.046,20.604-16.021c2.786,2.263,1.074,5.341,2.29,7.998c1.372,0.084,2.817,0.246,4.262,0.249c13.152,0.02,26.305,0.01,39.457,0.013c1.332,0,2.676-0.09,3.993,0.058c4.195,0.472,6.923,3.319,6.931,7.111c0.009,3.769-2.707,6.64-6.906,7.162c-1.313,0.164-2.66,0.059-3.992,0.06c-12.986,0.004-25.971-0.003-38.957,0.017C289.444,72.975,287.831,73.116,286.37,73.185z"/>
      <path fill-rule="evenodd" clip-rule="evenodd" fill="#333333" d="M286.169,160.135c-0.415,2.949-0.751,5.335-1.093,7.764c-3.912-0.933-15.602-8.731-21.15-13.987c0.515-0.849,0.872-2.041,1.672-2.656c5.672-4.363,11.428-8.617,17.186-12.869c0.355-0.262,0.947-0.205,1.518-0.314c2.658,1.996,0.679,5.082,1.976,7.844c1.191,0.064,2.637,0.208,4.084,0.209c14.166,0.018,28.332,0.026,42.498-0.004c2.397-0.006,4.626,0.15,6.279,2.252c3.469,4.41,1.328,10.532-4.174,11.627c-1.287,0.256-2.656,0.131-3.987,0.131c-13.333,0.008-26.665,0.005-39.998,0.005C289.367,160.135,287.753,160.135,286.169,160.135z"/>
      <path fill-rule="evenodd" clip-rule="evenodd" fill="#333333" d="M746.339,62.611c-7.418-11.369-14.741-22.591-22.126-33.909c4.933-4.125,10.441-6.383,16.43-7.229c8.244-1.164,15.62,4.287,18.262,13.006c1.412,4.658,1.147,9.181-0.777,13.626C755.628,53.878,751.887,58.641,746.339,62.611z"/>
    </g>
  </g>
</svg>